<?xml version="1.0" encoding="UTF-8" standalone="no"?><!DOCTYPE svg PUBLIC "-//W3C//DTD SVG 1.1//EN" "http://www.w3.org/Graphics/SVG/1.1/DTD/svg11.dtd"><svg width="55px" height="55px" version="1.1" xmlns="http://www.w3.org/2000/svg" xmlns:xlink="http://www.w3.org/1999/xlink" xml:space="preserve" xmlns:serif="http://www.serif.com/" style="fill-rule:evenodd;clip-rule:evenodd;stroke-linejoin:round;stroke-miterlimit:2;"><g transform="matrix(1.03243,0,0,0.994466,-1.72831,0.214844)"><rect x="1.665" y="-0.216" width="53.29" height="55.306" style="fill:white;"/></g><path d="M55,0L55,-0.029L54,-0.029L54,0L1,0L1,-0.029L0,-0.029L0,0L-0,0L-0,1L0,1L0,54L-0,54L-0,55L0,55L0,55L1,55L1,55L54,55L54,55L55,55L55,55L55.029,55L55.029,54L55,54L55,1L55.029,1L55.029,0L55,0ZM1,1L1,54L54,54L54,1L1,1Z" style="fill:rgb(229,229,229);"/></svg>