<?xml version="1.0" encoding="UTF-8" standalone="no"?><!DOCTYPE svg PUBLIC "-//W3C//DTD SVG 1.1//EN" "http://www.w3.org/Graphics/SVG/1.1/DTD/svg11.dtd"><svg width="100%" height="100%" viewBox="0 0 77 56" version="1.1" xmlns="http://www.w3.org/2000/svg" xmlns:xlink="http://www.w3.org/1999/xlink" xml:space="preserve" xmlns:serif="http://www.serif.com/" style="fill-rule:evenodd;clip-rule:evenodd;stroke-linejoin:round;stroke-miterlimit:2;"><g transform="matrix(1,0,0,1,-80.0719,-152.391)"><g transform="matrix(1,0,0,1,1.6378,-16.8697)"><g transform="matrix(1,0,0,1,3,-7.8027)"><g transform="matrix(0.757011,0,0,0.757011,1.64777,82.5354)"><path d="M198.647,135.438C198.647,132.636 197.534,129.948 195.552,127.966C193.57,125.984 190.882,124.871 188.079,124.871C168.65,124.871 127.468,124.871 108.038,124.871C105.236,124.871 102.548,125.984 100.566,127.966C98.584,129.948 97.471,132.636 97.471,135.438C97.471,148.435 97.471,170.5 97.471,184.602C97.471,188.105 98.862,191.465 101.34,193.943C103.817,196.42 107.177,197.812 110.68,197.812C130.993,197.812 169.491,197.812 188.079,197.812C190.882,197.812 193.57,196.698 195.552,194.716C197.534,192.735 198.647,190.047 198.647,187.244C198.647,173.404 198.647,149.278 198.647,135.438Z" style="fill:rgb(7,102,255);"/><path d="M198.647,135.438C198.647,132.636 197.534,129.948 195.552,127.966C193.57,125.984 190.882,124.871 188.079,124.871C168.65,124.871 127.468,124.871 108.038,124.871C105.236,124.871 102.548,125.984 100.566,127.966C98.584,129.948 97.471,132.636 97.471,135.438C97.471,148.435 97.471,170.5 97.471,184.602C97.471,188.105 98.862,191.465 101.34,193.943C103.817,196.42 107.177,197.812 110.68,197.812C130.993,197.812 169.491,197.812 188.079,197.812C190.882,197.812 193.57,196.698 195.552,194.716C197.534,192.735 198.647,190.047 198.647,187.244C198.647,173.404 198.647,149.278 198.647,135.438Z" style="fill:rgb(7,102,255);"/></g><g transform="matrix(1,0,0,1,-2.62144,24.6724)"><path d="M154.647,199.609C154.647,201.73 153.804,203.765 152.304,205.265C150.804,206.766 148.769,207.609 146.647,207.609C131.939,207.609 100.764,207.609 86.056,207.609C83.934,207.609 81.899,206.766 80.399,205.265C78.898,203.765 78.056,201.73 78.056,199.609C78.056,195.05 78.056,190.239 78.056,190.239C104.411,190.11 112.602,181.273 124.89,180.599C133.159,180.146 146.797,186.144 154.647,189.671L154.647,199.609Z" style="fill:rgb(58,133,255);"/><path d="M154.647,199.609C154.647,201.73 153.804,203.765 152.304,205.265C150.804,206.766 148.769,207.609 146.647,207.609C131.939,207.609 100.764,207.609 86.056,207.609C83.934,207.609 81.899,206.766 80.399,205.265C78.898,203.765 78.056,201.73 78.056,199.609C78.056,195.05 78.056,190.239 78.056,190.239C104.411,190.11 112.602,181.273 124.89,180.599C133.159,180.146 146.797,186.144 154.647,189.671L154.647,199.609Z" style="fill:rgb(58,133,255);"/></g><g transform="matrix(1,0,0,1,0,0.15422)"><path d="M93.953,232.281L133.507,232.281L133.507,230.751C133.507,228.691 131.835,227.018 129.775,227.018L97.685,227.018C95.625,227.018 93.953,228.691 93.953,230.751L93.953,232.281Z" style="fill:rgb(236,241,250);"/><path d="M93.953,232.281L133.507,232.281L133.507,230.751C133.507,228.691 131.835,227.018 129.775,227.018L97.685,227.018C95.625,227.018 93.953,228.691 93.953,230.751L93.953,232.281Z" style="fill:rgb(236,241,250);"/></g></g></g></g></svg>